<svg width="1277" height="472" viewBox="0 0 1277 472" fill="none" xmlns="http://www.w3.org/2000/svg">
<g clip-path="url(#clip0_5_2)">
<path d="M169.147 112.936C169.147 128.875 161.472 144.225 142.283 152.79C166.49 160.168 175.343 185.85 175.343 198.84C175.343 244.89 140.808 259.65 98 259.65H0V53.011H98C138.747 53.011 169.147 71.31 169.147 112.936ZM38.3719 135.961H98C122.5 135.961 130.476 125.629 130.476 113.822C130.476 104.375 122.801 88.432 98 88.432H38.3719V135.961ZM38.3719 223.339H98C113.944 223.339 136.672 218.025 136.672 198.539C136.672 179.939 113.944 170.2 98 170.2H38.3719V223.339Z" fill="#1B3151"/>
<path d="M239.408 73.082C239.408 101.125 196.897 101.125 196.897 73.082C196.897 45.039 239.408 45.039 239.408 73.082ZM200.147 113.525V259.65H236.161V113.525H200.147Z" fill="#1B3151"/>
<path d="M304.42 120.35V316.342C304.42 356.193 288.612 382 255.507 382C243.94 381.974 232.636 378.225 223 371.219L236.124 340.188C242.388 343.453 248.349 345.089 253.717 344.761C265.65 344.109 268.334 333.98 268.334 316.342V120.35H304.42ZM265.051 75.2742C265.051 106.305 308 106.305 308 75.2742C308 44.2436 265.051 44.2403 265.051 75.2742Z" fill="#1B3151"/>
<path d="M370.476 53.303V259.65H334.754V53.303H370.476Z" fill="#1B3151"/>
<path d="M432.761 199.725C435.122 217.733 450.768 230.718 476.154 230.718C489.44 230.718 506.854 225.704 515.122 217.139L538.147 239.872C522.797 255.811 497.704 263.49 475.565 263.49C425.379 263.49 395.565 232.49 395.565 185.85C395.565 141.568 425.675 109.69 472.908 109.69C521.615 109.69 552.022 139.796 546.408 199.725H432.761ZM511.872 169.911C509.511 151.018 494.75 141.568 474.086 141.568C454.604 141.568 438.665 151.018 433.35 169.911H511.872Z" fill="#1B3151"/>
<path d="M669.215 152.79C658.883 143.047 647.072 139.796 633.197 139.796C616.075 139.796 606.629 145.111 606.629 154.26C606.629 163.711 615.189 169.026 633.79 170.204C661.243 171.975 696.075 178.175 696.075 216.847C696.075 242.529 675.119 264.668 633.493 264.668C610.468 264.668 587.443 260.833 566.193 238.689L583.903 213.011C594.236 224.522 617.85 233.083 634.085 233.375C647.668 233.675 660.361 226.59 660.361 215.961C660.361 205.926 652.093 201.789 631.432 200.611C603.979 198.543 571.211 188.511 571.211 155.447C571.211 121.789 606.043 109.982 632.611 109.982C655.344 109.982 672.465 114.411 689.29 129.172L669.215 152.79Z" fill="#1B3151"/>
<path d="M928.201 293.133C928.201 295.189 925.736 296.833 922.861 296.833C922.156 296.861 921.454 296.72 920.814 296.424C893.714 289.852 880.58 258.651 880.58 217.598C880.635 201.17 882.423 184.793 885.915 168.74C876.328 170.732 866.556 171.695 856.765 171.615H825.565L799.699 246.743C795.183 259.474 780.399 267.684 770.959 267.684C766.033 267.684 762.34 265.632 762.34 260.293C762.399 258.451 762.817 256.638 763.572 254.957L792.308 171.615H773.424C768.907 171.615 766.856 169.973 766.856 167.508C766.856 162.582 775.479 154.782 784.508 154.782H798.057L840.347 32.434C822.691 20.117 805.858 14.369 791.08 14.369C758.642 14.369 735.245 40.235 735.245 73.901C735.245 102.637 756.591 125.629 780.401 125.629C786.15 125.629 789.434 128.503 789.434 132.196C789.434 137.536 781.224 144.513 760.288 144.513C729.496 144.513 708.966 121.935 708.966 86.218C708.966 56.245 734.009 0 796.415 0C816.123 0 851.427 7.8 869.083 18.885C873.6 21.759 874.423 22.992 874.423 26.276C874.502 28.2265 874.223 30.1749 873.6 32.025L831.314 154.779H868.674C875.846 154.93 883.011 154.242 890.023 152.727C902.75 106.335 928.611 57.477 968.023 19.294C982.394 5.336 994.71 0.41 1003.75 0.41C1018.53 0.41 1025.1 12.317 1025.1 27.51C1025.1 65.279 985.686 128.505 923.688 156.832C914.66 186.805 908.501 216.774 908.501 240.998C908.501 262.347 913.014 279.176 924.512 287.798C926.973 289.849 928.201 291.491 928.201 293.133ZM930.666 135.894C978.7 103.46 998.817 46.394 998.817 27.918C998.817 22.992 997.585 20.118 994.71 20.118C988.143 20.118 973.365 37.361 953.653 79.237C944.999 97.7062 937.326 116.62 930.666 135.898V135.894Z" fill="#F7B319"/>
<path d="M1011.55 151.904C1011.59 154.069 1011.02 156.202 1009.91 158.062C998.002 183.519 977.884 213.488 977.884 236.889C977.884 244.28 979.936 247.564 983.22 247.564C994.72 247.564 1022.23 210.613 1042.34 167.095C1049.32 152.727 1062.46 144.927 1070.67 144.927C1075.19 144.927 1078.47 146.978 1078.47 151.495C1078.22 154.06 1077.53 156.563 1076.41 158.886C1068.21 177.77 1043.98 231.14 1043.98 243.047C1043.98 246.331 1045.21 248.796 1048.08 248.796C1054.24 248.796 1069.84 238.121 1089.97 215.13C1090.83 214.12 1091.9 213.305 1093.1 212.738C1094.3 212.172 1095.61 211.868 1096.94 211.846C1099.41 211.846 1101.46 213.078 1101.46 215.953C1101.46 218.828 1099.82 222.521 1095.71 227.446C1073.13 254.131 1050.14 267.681 1035.77 267.681C1021.81 267.681 1016.07 259.881 1016.07 247.973C1016.14 242.683 1016.97 237.43 1018.53 232.373C1001.29 256.188 983.221 267.682 969.676 267.682C957.768 267.682 949.554 258.649 949.554 241.406C949.554 222.522 961.054 197.065 970.495 178.181C971.313 176.539 972.55 174.074 972.55 172.845C972.491 172.357 972.242 171.911 971.858 171.604C971.474 171.297 970.984 171.153 970.495 171.203C969.676 171.203 968.03 171.613 966.801 171.613C963.927 171.613 961.052 170.38 961.052 167.506C961.052 160.115 981.583 144.514 1001.7 144.514C1007.03 144.513 1011.55 146.978 1011.55 151.904Z" fill="#F7B319"/>
<path d="M1114.18 235.247C1113.32 237.91 1112.77 240.666 1112.54 243.457C1112.54 246.74 1113.77 248.796 1116.65 248.796C1122.81 248.796 1138.82 238.121 1158.53 215.13C1159.34 214.068 1160.4 213.217 1161.62 212.646C1162.83 212.075 1164.16 211.801 1165.5 211.846C1168.38 211.846 1170.43 213.078 1170.43 215.953C1170.43 218.414 1168.79 222.521 1164.27 227.446C1141.69 254.131 1119.11 267.681 1104.74 267.681C1089.55 267.681 1082.57 258.648 1082.57 244.689C1082.65 239.533 1083.48 234.415 1085.03 229.498C1091.19 208.148 1101.46 188.445 1105.97 179.003C1107.2 176.128 1108.03 174.486 1108.03 173.254C1108.03 172.022 1107.2 171.612 1105.97 171.612C1104.75 171.612 1103.51 172.021 1102.28 172.021C1099.41 172.021 1096.53 170.789 1096.53 167.914C1096.53 159.704 1118.29 144.514 1139.23 144.514C1144.98 144.514 1147.43 146.979 1147.43 150.673C1147.43 156.012 1142.92 164.631 1138.4 174.487C1130.61 191.319 1120.76 213.078 1114.18 235.247ZM1163.05 97.711C1163.05 108.795 1151.55 121.111 1138 121.111C1128.56 121.111 1121.17 114.543 1121.17 105.92C1121.17 94.02 1133.9 82.52 1146.62 82.52C1155.65 82.52 1163.05 87.86 1163.05 97.711Z" fill="#F7B319"/>
<path d="M1184.8 182.286C1179.87 174.896 1176.17 167.505 1176.17 158.886C1176.17 134.661 1204.5 113.721 1221.75 113.721C1229.13 113.721 1234.47 117.421 1234.47 126.452C1234.47 139.178 1220.93 157.244 1211.07 169.56C1222.97 184.338 1238.99 201.58 1238.99 220.465C1260.75 223.339 1276.35 232.372 1276.35 247.565C1276.35 255.774 1268.96 273.431 1261.16 273.431C1260.77 273.476 1260.38 273.432 1260.01 273.304C1259.64 273.175 1259.31 272.964 1259.03 272.688C1258.75 272.412 1258.54 272.076 1258.42 271.707C1258.29 271.338 1258.24 270.944 1258.29 270.556C1258.29 267.682 1260.75 265.217 1260.75 259.881C1260.75 249.616 1251.72 241.816 1235.29 238.122C1226.67 260.291 1204.09 267.682 1184.8 267.682C1175.36 267.682 1155.65 263.575 1155.65 250.848C1155.65 238.532 1174.95 225.396 1211.9 220.88C1208.2 211.024 1199.99 202.405 1192.6 192.962L1164.26 227.447C1163.4 228.457 1162.33 229.272 1161.13 229.839C1159.93 230.405 1158.62 230.709 1157.29 230.731C1154.82 230.731 1152.78 229.499 1152.78 226.215C1152.78 223.754 1154.41 220.057 1158.52 215.131C1165.91 206.506 1176.17 193.371 1184.8 182.286ZM1212.71 235.656C1196.29 235.656 1177 236.889 1177 247.564C1177 252.489 1180.28 255.364 1186.03 255.364C1197.52 255.364 1209.43 247.973 1212.71 235.656ZM1198.76 145.336C1198.76 149.853 1200.4 153.546 1202.86 157.653C1208.2 149.443 1213.12 141.229 1213.53 135.48C1213.53 132.61 1212.71 130.968 1210.66 130.968C1205.74 130.968 1198.76 138.355 1198.76 145.336Z" fill="#F7B319"/>
<path d="M926.423 377.831V351.855H894.846V377.831H882.73V313.581H894.846V340.66H926.423V313.577H938.447V377.828L926.423 377.831Z" fill="black"/>
<path d="M958.55 359.107C959.284 364.706 964.15 368.743 972.043 368.743C976.175 368.743 981.589 367.184 984.159 364.521L991.319 371.59C986.546 376.546 978.743 378.934 971.86 378.934C956.254 378.934 946.983 369.292 946.983 354.792C946.983 341.022 956.346 331.11 971.033 331.11C986.178 331.11 995.633 340.471 993.888 359.107H958.55ZM983.149 349.836C982.415 343.961 977.826 341.022 971.4 341.022C965.342 341.022 960.386 343.961 958.734 349.836H983.149Z" fill="black"/>
<path d="M1013.62 313.577V377.743H1002.52V313.577H1013.62Z" fill="black"/>
<path d="M1034.55 313.577V377.743H1023.44V313.577H1034.55Z" fill="black"/>
<path d="M1089.35 355.159C1089.35 368.194 1080.45 378.749 1065.76 378.749C1051.07 378.749 1042.26 368.194 1042.26 355.159C1042.26 342.216 1051.26 331.568 1065.67 331.568C1080.08 331.568 1089.35 342.216 1089.35 355.159ZM1053.46 355.159C1053.46 362.044 1057.59 368.47 1065.76 368.47C1073.93 368.47 1078.06 362.046 1078.06 355.159C1078.06 348.367 1073.29 341.758 1065.76 341.758C1057.68 341.758 1053.46 348.367 1053.46 355.159Z" fill="black"/>
<path d="M1133.28 308.109C1134.81 308.109 1135.96 308.877 1135.96 310.407C1135.94 311.021 1135.81 311.627 1135.57 312.193C1135.57 312.193 1123.19 348.322 1116.93 366.578C1110.93 384.07 1100.08 389.3 1092.43 389.3C1091.15 389.3 1089.87 389.044 1089.87 387.897C1089.87 386.236 1092.43 385.981 1093.96 385.344C1096.23 384.337 1098.27 382.879 1099.96 381.057C1101.65 379.235 1102.95 377.089 1103.79 374.748C1105.96 368.237 1124.47 314.619 1124.47 314.619C1125.88 310.79 1130.34 308.109 1133.28 308.109ZM1166.47 321.897C1166.47 339.002 1149.23 354.194 1134.42 354.194C1127.91 354.194 1125.61 352.024 1125.61 351.002C1125.59 350.813 1125.62 350.621 1125.68 350.441C1125.74 350.262 1125.85 350.098 1125.98 349.963C1126.12 349.829 1126.28 349.726 1126.46 349.663C1126.64 349.599 1126.83 349.577 1127.02 349.598C1127.79 349.598 1128.68 349.981 1129.83 349.981C1137.74 349.981 1154.47 342.449 1155.49 321.257C1155.49 307.726 1142.47 301.216 1133.66 301.216C1119.87 301.216 1103.66 311.045 1103.66 328.152C1103.66 339.002 1112.98 335.939 1112.98 339.258C1112.98 340.538 1111.19 341.938 1106.08 341.938C1099.19 341.938 1092.68 337.214 1092.68 328.152C1092.68 309.386 1114.13 297.003 1134.93 297.003C1153.19 297.003 1166.47 305.426 1166.47 321.894L1166.47 321.897Z" fill="black"/>
<path d="M1177.83 359.684C1175.47 359.449 1173.15 358.891 1170.94 358.024C1166.98 364.023 1159.96 373.98 1155.11 379.089C1154.76 379.448 1154.35 379.735 1153.89 379.932C1153.43 380.129 1152.93 380.233 1152.43 380.237C1151.15 380.237 1149.88 379.469 1149.88 378.194C1149.99 377.32 1150.39 376.509 1151.03 375.896C1156.82 369.698 1162.15 363.085 1166.98 356.109C1163.41 353.811 1161.88 351.258 1161.88 347.3C1161.88 339.385 1168.77 333.897 1173.87 333.897C1174.63 333.874 1175.38 334.008 1176.08 334.291C1176.78 334.573 1177.42 334.997 1177.94 335.537C1178.47 336.077 1178.88 336.72 1179.15 337.427C1179.41 338.133 1179.53 338.887 1179.49 339.641C1179.49 343.216 1178.09 346.535 1176.17 349.981C1179.49 350.875 1183.45 350.493 1186.26 350.749C1187.19 350.809 1188.05 351.23 1188.67 351.922C1189.29 352.614 1189.62 353.521 1189.58 354.45C1189.58 354.933 1189.48 355.41 1189.28 355.851C1189.08 356.291 1188.79 356.684 1188.43 357.004C1186.64 358.79 1179.37 365.685 1179.37 371.046C1179.37 373.088 1180.26 373.983 1181.66 373.983C1184.85 373.983 1190.85 369.896 1195.96 363.897C1196.23 363.583 1196.56 363.329 1196.93 363.152C1197.31 362.976 1197.72 362.881 1198.13 362.873C1198.31 362.849 1198.49 362.865 1198.66 362.919C1198.84 362.973 1199 363.064 1199.13 363.186C1199.26 363.308 1199.37 363.457 1199.44 363.625C1199.51 363.792 1199.54 363.972 1199.53 364.153C1199.53 365.045 1199.02 366.196 1197.75 367.727C1189.83 377.046 1183.45 380.238 1178.85 380.238C1177.77 380.257 1176.69 380.059 1175.69 379.657C1174.68 379.254 1173.76 378.655 1172.99 377.895C1172.22 377.134 1171.6 376.226 1171.19 375.226C1170.77 374.225 1170.55 373.151 1170.56 372.067C1170.56 367.598 1174.13 363.003 1177.83 359.684ZM1172.09 347.939C1173.12 346.101 1173.69 344.043 1173.75 341.938C1173.75 339.513 1173.11 338.619 1172.21 338.619C1170.94 338.619 1169.53 340.407 1169.53 342.577C1169.57 343.599 1169.81 344.603 1170.25 345.526C1170.69 346.449 1171.32 347.27 1172.09 347.939Z" fill="black"/>
<path d="M1229.15 355.086C1229.07 359.807 1227.55 364.39 1224.81 368.235C1225.49 368.34 1226.17 368.383 1226.86 368.362C1230.05 368.362 1233.11 367.082 1235.92 363.894C1236.17 363.559 1236.5 363.291 1236.88 363.112C1237.26 362.934 1237.67 362.851 1238.09 362.87C1238.27 362.847 1238.45 362.862 1238.63 362.916C1238.8 362.97 1238.96 363.061 1239.09 363.183C1239.22 363.305 1239.33 363.455 1239.4 363.622C1239.47 363.789 1239.5 363.969 1239.49 364.15C1239.49 365.043 1238.98 366.193 1237.71 367.725C1233.88 372.192 1229.28 374.107 1224.81 374.107C1223.35 374.083 1221.89 373.868 1220.47 373.469C1215.75 377.937 1210.01 380.235 1205.03 380.235C1197.24 380.235 1192.9 374.363 1192.9 367.214C1193.09 361.196 1195.34 355.426 1199.28 350.874C1202.22 347.427 1205.28 345.128 1206.31 345.128C1206.83 345.186 1207.31 345.445 1207.64 345.85C1207.97 346.256 1208.14 346.775 1208.09 347.298C1208.09 347.775 1207.91 348.235 1207.58 348.578C1203.99 352.628 1201.99 357.847 1201.96 363.26C1201.96 369.643 1205.03 374.621 1209.49 374.621C1212.04 374.457 1214.42 373.313 1216.13 371.43C1213.47 369.855 1211.25 367.616 1209.71 364.931C1208.17 362.247 1207.35 359.208 1207.33 356.111C1207.33 350.111 1210.77 341.94 1218.43 341.94C1219.7 341.955 1220.95 342.222 1222.11 342.726C1223.27 343.231 1224.32 343.961 1225.2 344.876C1226.52 346.22 1227.55 347.818 1228.23 349.574C1228.91 351.329 1229.22 353.205 1229.15 355.086ZM1211.79 354.193C1211.79 358.916 1215.11 363.638 1219.58 366.32C1220.59 363.715 1221.11 360.945 1221.12 358.15C1221.12 353.299 1219.58 348.192 1216.14 348.192C1213.07 348.193 1211.79 351.258 1211.79 354.194V354.193Z" fill="black"/>
<path d="M1252.65 391.088C1252.65 408.068 1240.52 423 1232.6 423C1226.86 423 1224.82 416.745 1224.82 409.341C1224.82 397.979 1229.03 381.383 1233.24 365.552C1244.09 324.191 1262.6 297 1269.75 297C1271.79 297 1272.95 298.915 1272.95 303.128C1272.95 328.276 1255.33 360.064 1243.07 371.297L1240.14 374.106C1236.56 387.766 1233.5 402.83 1233.5 410.106C1233.5 413.682 1234.65 415.596 1236.31 415.596C1238.35 415.596 1243.71 411.894 1243.71 390.957C1243.71 386.746 1243.45 383.681 1242.82 381.893C1242.49 381.207 1242.28 380.475 1242.18 379.723C1242.27 378.744 1242.73 377.835 1243.45 377.171C1252.14 368.107 1263.24 362.873 1269.88 362.873C1273.45 362.873 1275.63 364.405 1275.63 367.596C1275.54 369.461 1275.06 371.288 1274.22 372.958C1274.06 373.271 1273.82 373.539 1273.53 373.74C1273.24 373.94 1272.91 374.066 1272.56 374.106C1272.19 374.139 1271.82 374.022 1271.53 373.782C1271.24 373.542 1271.06 373.199 1271.03 372.826C1270.77 371.166 1269.24 370.017 1266.05 370.017C1261.46 370.017 1254.56 372.697 1249.58 376.911C1251.62 381.359 1252.66 386.196 1252.65 391.088ZM1262.99 311.173C1260.05 311.173 1249.84 338.619 1242.31 366.195C1255.97 351.002 1263.75 320.492 1263.75 313.854C1263.75 312.066 1263.49 311.173 1262.98 311.173H1262.99Z" fill="black"/>
<path d="M764.269 380.312V323.081H773.989V350.374L773.136 349.208C773.922 346.467 775.658 344.097 778.034 342.521C780.589 340.827 783.602 339.959 786.666 340.033C789.876 339.961 793.037 340.825 795.763 342.521C798.428 344.264 800.556 346.714 801.907 349.597C803.474 352.953 804.246 356.625 804.161 360.328C804.24 364.055 803.469 367.751 801.907 371.136C800.56 374.065 798.418 376.557 795.725 378.329C793.017 380.04 789.868 380.918 786.666 380.856C783.618 380.932 780.615 380.107 778.034 378.484C775.618 376.933 773.871 374.534 773.136 371.759L773.989 370.359V380.312H764.269ZM784.175 373.392C785.603 373.464 787.027 373.191 788.327 372.595C789.626 372 790.763 371.099 791.64 369.97C793.404 367.689 794.285 364.475 794.285 360.329C794.285 356.285 793.404 353.162 791.64 350.959C790.744 349.859 789.601 348.987 788.303 348.413C787.006 347.839 785.592 347.579 784.175 347.654C780.858 347.654 778.331 348.769 776.594 350.998C774.857 353.227 773.989 356.39 773.989 360.485C773.989 364.632 774.857 367.82 776.594 370.049C778.331 372.278 780.858 373.392 784.175 373.392Z" fill="black"/>
<path d="M826.166 382.879L808.048 341.043H818.234L830.599 371.836L826.166 382.879ZM812.558 397.963L810.381 390.498C812.458 390.09 814.49 389.478 816.447 388.672C817.943 388.046 819.303 387.134 820.451 385.988C821.599 384.767 822.508 383.343 823.134 381.789L825.933 375.413L828.421 371.836L841.018 341.043H850.66L832.464 382.956C831.219 385.974 829.456 388.75 827.254 391.16C825.378 393.141 823.115 394.716 820.606 395.787C818.028 396.854 815.323 397.585 812.558 397.963Z" fill="black"/>
</g>
<defs>
<clipPath id="clip0_5_2">
<rect width="1276.35" height="471.594" fill="white"/>
</clipPath>
</defs>
</svg>
